{
  "accessors": [
    {
      "bufferView": 2,
      "componentType": 5126,
      "count": 8242,
      "max": [
        273.6784973144531,
        -0.0,
        319.0138854980469
      ],
      "min": [
        -273.6785888671875,
        -1703.9310302734375,
        -319.0137939453125
      ],
      "type": "VEC3"
    },
    {
      "bufferView": 2,
      "byteOffset": 98904,
      "componentType": 5126,
      "count": 8242,
      "max": [
        0.9998809099197388,
        0.9992507100105286,
        0.9999483823776245
      ],
      "min": [
        -0.9999978542327881,
        -0.9999498128890991,
        -0.9999988079071045
      ],
      "type": "VEC3"
    },
    {
      "bufferView": 3,
      "componentType": 5126,
      "count": 8242,
      "max": [
        0.9999201893806458,
        0.9999650716781616,
        0.9994978904724121,
        1.0
      ],
      "min": [
        -0.9999415874481201,
        -0.9997910261154175,
        -0.999800980091095,
        -1.0
      ],
      "type": "VEC4"
    },
    {
      "bufferView": 1,
      "componentType": 5126,
      "count": 8242,
      "max": [
        0.9944000244140625,
        0.9947999715805054
      ],
      "min": [
        0.0020000000949949026,
        0.0020000000949949026
      ],
      "type": "VEC2"
    },
    {
      "bufferView": 0,
      "componentType": 5125,
      "count": 44502,
      "type": "SCALAR"
    }
  ],
  "asset": {
    "extras": {
      "author": "Arion Digital (https://sketchfab.com/andrewswihart)",
      "license": "CC-BY-4.0 (http://creativecommons.org/licenses/by/4.0/)",
      "source": "https://sketchfab.com/3d-models/woman-walking-7fdd3ab66966442db81cc8a7f4f741aa",
      "title": "Woman Walking"
    },
    "generator": "Sketchfab-12.67.0",
    "version": "2.0"
  },
  "bufferViews": [
    {
      "buffer": 0,
      "byteLength": 178008,
      "name": "floatBufferViews",
      "target": 34963
    },
    {
      "buffer": 0,
      "byteLength": 65936,
      "byteOffset": 178008,
      "byteStride": 8,
      "name": "floatBufferViews",
      "target": 34962
    },
    {
      "buffer": 0,
      "byteLength": 197808,
      "byteOffset": 243944,
      "byteStride": 12,
      "name": "floatBufferViews",
      "target": 34962
    },
    {
      "buffer": 0,
      "byteLength": 131872,
      "byteOffset": 441752,
      "byteStride": 16,
      "name": "floatBufferViews",
      "target": 34962
    }
  ],
  "buffers": [
    {
      "byteLength": 573624,
      "uri": "scene.bin"
    }
  ],
  "images": [
    {
      "uri": "textures/material_0_baseColor.png"
    },
    {
      "uri": "textures/material_0_normal.png"
    }
  ],
  "materials": [
    {
      "doubleSided": true,
      "name": "material_0",
      "normalTexture": {
        "index": 1
      },
      "pbrMetallicRoughness": {
        "baseColorTexture": {
          "index": 0
        },
        "metallicFactor": 0.0,
        "roughnessFactor": 0.6
      }
    }
  ],
  "meshes": [
    {
      "name": "Object_0",
      "primitives": [
        {
          "attributes": {
            "NORMAL": 1,
            "POSITION": 0,
            "TANGENT": 2,
            "TEXCOORD_0": 3
          },
          "indices": 4,
          "material": 0,
          "mode": 4
        }
      ]
    }
  ],
  "nodes": [
    {
      "children": [
        1
      ],
      "matrix": [
        1.0,
        0.0,
        0.0,
        0.0,
        0.0,
        -0.9985414743423462,
        0.053990129381418006,
        0.0,
        0.0,
        -0.053990129381418006,
        -0.9985414743423462,
        0.0,
        0.0,
        -850.721862792969,
        897.9633789062498,
        1.0
      ],
      "name": "Sketchfab_model"
    },
    {
      "children": [
        2
      ],
      "name": "Jess_Casual_Walking_001.obj.cleaner.materialmerger.gles"
    },
    {
      "mesh": 0,
      "name": "Object_2"
    }
  ],
  "samplers": [
    {
      "magFilter": 9729,
      "minFilter": 9987,
      "wrapS": 10497,
      "wrapT": 10497
    }
  ],
  "scene": 0,
  "scenes": [
    {
      "name": "Sketchfab_Scene",
      "nodes": [
        0
      ]
    }
  ],
  "textures": [
    {
      "sampler": 0,
      "source": 0
    },
    {
      "sampler": 0,
      "source": 1
    }
  ]
}
